<svg xmlns="http://www.w3.org/2000/svg" viewBox="-5 -10 110 135"><path d="m46.223 45.617 3.016 2.5a1.247 1.247 0 0 0 1.644.016c.04-.032.352-.29 3.05-2.532 3.532-3.007 3.544-5.695 2.935-7.425-.477-1.336-1.61-2.36-2.957-2.672-1.633-.38-2.993.277-3.84.894-.852-.617-2.203-1.273-3.84-.894-1.348.312-2.484 1.336-2.957 2.676-.34.957-.555 2.48.348 4.296.535 1.07 1.406 2.125 2.601 3.141zm3.394.973a.008.008 0 0 0 .008-.008c0 .004-.004.004-.007.008zm-4.456-7.739c.25-.699.832-1.234 1.523-1.394.172-.04.34-.059.504-.059 1.015 0 1.844.688 2.183 1.024a.995.995 0 0 0 1.399 0c.394-.387 1.445-1.254 2.687-.965.692.16 1.278.695 1.524 1.394.574 1.63-.235 3.438-2.336 5.227-1.39 1.152-2.156 1.785-2.578 2.137l-2.563-2.125c-.976-.832-1.683-1.676-2.097-2.504-.583-1.188-.458-2.145-.247-2.735zm49.526 2.141c0-7.434-3.394-14.285-9.308-18.797-5.906-4.504-13.395-5.96-20.551-3.992l-9.117 2.52a22.005 22.005 0 0 1-11.414 0l-9.13-2.524a23.959 23.959 0 0 0-6.273-.832c-13 0-23.578 10.598-23.578 23.62 0 12.427 9.864 22.82 22.145 23.54a23.063 23.063 0 0 0 22.54 18.125c10.897 0 20.25-7.594 22.542-18.121 12.281-.723 22.145-11.117 22.145-23.54zM50 80.652a21.094 21.094 0 0 1-20.762-17.301c-.261-1.164-.398-2.46-.398-3.86 0-6.062 2.531-11.683 6.992-15.68.48 1.766 1.399 3.387 2.653 4.778-2.813 2.957-4.368 6.781-4.368 10.902 0 1.101.118 2.203.36 3.36 1.539 7.257 8.07 12.522 15.523 12.522s13.984-5.265 15.527-12.527c.242-1.156.36-2.254.36-3.355 0-4.121-1.556-7.946-4.368-10.902 1.254-1.39 2.172-3.012 2.652-4.778 4.461 3.997 6.992 9.618 6.992 15.68 0 1.395-.132 2.696-.406 3.899-1.84 10-10.57 17.262-20.758 17.262zM37.44 40.992c0-5.773 5.633-10.469 12.56-10.469s12.558 4.695 12.558 10.469c0 .203-.023.402-.035.605a.994.994 0 0 0-.039.512c-.672 5.25-6.011 9.352-12.484 9.352s-11.812-4.102-12.484-9.352a.954.954 0 0 0-.039-.512c-.012-.203-.035-.402-.035-.605zm2.485 8.98c2.617 2.157 6.164 3.489 10.074 3.489s7.457-1.332 10.074-3.489c2.453 2.582 3.812 5.922 3.812 9.52 0 .965-.101 1.93-.312 2.945-1.352 6.34-7.059 10.938-13.574 10.938s-12.223-4.601-13.57-10.934a14.415 14.415 0 0 1-.317-2.949c0-3.598 1.36-6.937 3.813-9.52zm33 12.508c.137-.949.234-1.933.234-2.988 0-7.07-3.14-13.59-8.633-17.996.008-.168.032-.336.032-.508 0-6.875-6.531-12.469-14.56-12.469S35.44 34.113 35.44 40.99c0 .171.023.335.031.507-5.488 4.406-8.633 10.926-8.633 17.996 0 1.051.074 2.051.211 2.985-10.988-.922-19.738-10.293-19.738-21.484 0-11.922 9.68-21.621 21.578-21.621 1.945 0 3.879.257 5.746.761l9.133 2.524a24.1 24.1 0 0 0 12.469 0l9.125-2.524c6.547-1.8 13.402-.468 18.805 3.656 5.414 4.13 8.523 10.398 8.523 17.203-.003 11.2-8.765 20.578-19.766 21.488zM19.663 35.671a5.322 5.322 0 0 0-5.316 5.317 5.322 5.322 0 0 0 5.316 5.316 5.322 5.322 0 0 0 5.316-5.316c.004-2.93-2.382-5.317-5.316-5.317zm0 8.637a3.32 3.32 0 0 1-3.316-3.316 3.32 3.32 0 0 1 3.316-3.317 3.32 3.32 0 0 1 3.316 3.317 3.318 3.318 0 0 1-3.316 3.316zm60.82-8.637a5.322 5.322 0 0 0-5.317 5.317 5.322 5.322 0 0 0 5.317 5.316 5.322 5.322 0 0 0 5.316-5.316c.004-2.93-2.383-5.317-5.316-5.317zm0 8.637a3.32 3.32 0 0 1-3.317-3.316c0-1.828 1.489-3.317 3.317-3.317s3.316 1.489 3.316 3.317a3.318 3.318 0 0 1-3.316 3.316z"/></svg>
